<svg width="220" height="140" viewBox="0 0 220 140" fill="none" xmlns="http://www.w3.org/2000/svg">
<rect width="220" height="140" fill="#1E1E1E"/>
<rect width="220" height="140" fill="white"/>
<path d="M30 14H192C201.941 14 210 22.0589 210 32V126H30C20.0589 126 12 117.941 12 108V32C12 22.0589 20.0589 14 30 14Z" stroke="black" stroke-width="4"/>
<path d="M46.7996 65.336C46.1916 65.336 45.7116 65.16 45.3596 64.808C45.0076 64.424 44.8316 63.912 44.8316 63.272V34.568H34.0316C33.4556 34.568 33.0076 34.408 32.6876 34.088C32.3676 33.768 32.2076 33.352 32.2076 32.84C32.2076 32.296 32.3676 31.88 32.6876 31.592C33.0076 31.304 33.4556 31.16 34.0316 31.16H59.6156C60.1916 31.16 60.6396 31.304 60.9596 31.592C61.2796 31.88 61.4396 32.296 61.4396 32.84C61.4396 33.384 61.2796 33.816 60.9596 34.136C60.6396 34.424 60.1916 34.568 59.6156 34.568H48.8156V63.272C48.8156 63.912 48.6396 64.424 48.2876 64.808C47.9676 65.16 47.4716 65.336 46.7996 65.336ZM77.5012 65.432C74.3652 65.432 71.6292 64.728 69.2932 63.32C66.9892 61.88 65.1972 59.864 63.9172 57.272C62.6692 54.68 62.0452 51.608 62.0452 48.056C62.0452 45.368 62.3972 42.968 63.1012 40.856C63.8372 38.712 64.8772 36.904 66.2212 35.432C67.5652 33.928 69.1812 32.776 71.0692 31.976C72.9892 31.144 75.1332 30.728 77.5012 30.728C80.7012 30.728 83.4532 31.432 85.7572 32.84C88.0932 34.248 89.8852 36.248 91.1332 38.84C92.4132 41.4 93.0532 44.456 93.0532 48.008C93.0532 50.696 92.6852 53.112 91.9492 55.256C91.2132 57.4 90.1732 59.224 88.8292 60.728C87.4852 62.232 85.8532 63.4 83.9332 64.232C82.0452 65.032 79.9012 65.432 77.5012 65.432ZM77.5012 61.928C79.9332 61.928 81.9812 61.384 83.6452 60.296C85.3412 59.208 86.6372 57.624 87.5332 55.544C88.4292 53.464 88.8772 50.968 88.8772 48.056C88.8772 43.672 87.8852 40.28 85.9012 37.88C83.9492 35.448 81.1492 34.232 77.5012 34.232C75.1332 34.232 73.1012 34.776 71.4052 35.864C69.7412 36.952 68.4612 38.536 67.5652 40.616C66.6692 42.664 66.2212 45.144 66.2212 48.056C66.2212 52.408 67.2132 55.816 69.1972 58.28C71.1812 60.712 73.9492 61.928 77.5012 61.928ZM102.058 65.336C101.418 65.336 100.922 65.16 100.57 64.808C100.25 64.424 100.09 63.912 100.09 63.272V32.84C100.09 32.168 100.25 31.672 100.57 31.352C100.922 31 101.418 30.824 102.058 30.824C102.698 30.824 103.178 31 103.498 31.352C103.85 31.672 104.026 32.168 104.026 32.84V46.52H104.122L119.77 31.928C120.154 31.544 120.538 31.272 120.922 31.112C121.306 30.92 121.722 30.824 122.17 30.824C122.778 30.824 123.21 30.968 123.466 31.256C123.754 31.544 123.866 31.896 123.802 32.312C123.738 32.728 123.514 33.128 123.13 33.512L106.762 48.68L106.81 46.568L123.898 62.36C124.378 62.808 124.634 63.272 124.666 63.752C124.698 64.2 124.554 64.584 124.234 64.904C123.946 65.192 123.498 65.336 122.89 65.336C122.41 65.336 121.994 65.224 121.642 65C121.322 64.808 120.954 64.504 120.538 64.088L104.122 49.064H104.026V63.272C104.026 63.912 103.866 64.424 103.546 64.808C103.226 65.16 102.73 65.336 102.058 65.336ZM138.671 65.336C138.031 65.336 137.535 65.16 137.183 64.808C136.863 64.424 136.703 63.896 136.703 63.224V47.48L137.567 50.216L125.519 33.608C125.231 33.192 125.087 32.776 125.087 32.36C125.119 31.912 125.295 31.544 125.615 31.256C125.935 30.968 126.351 30.824 126.863 30.824C127.311 30.824 127.711 30.936 128.063 31.16C128.415 31.352 128.735 31.672 129.023 32.12L139.247 46.232H138.239L148.463 32.12C148.815 31.64 149.151 31.304 149.471 31.112C149.791 30.92 150.175 30.824 150.623 30.824C151.135 30.824 151.535 30.968 151.823 31.256C152.111 31.512 152.255 31.864 152.255 32.312C152.287 32.728 152.143 33.176 151.823 33.656L139.823 50.216L140.639 47.48V63.224C140.639 64.632 139.983 65.336 138.671 65.336ZM169.236 65.432C166.1 65.432 163.364 64.728 161.028 63.32C158.724 61.88 156.932 59.864 155.652 57.272C154.404 54.68 153.78 51.608 153.78 48.056C153.78 45.368 154.132 42.968 154.836 40.856C155.572 38.712 156.612 36.904 157.956 35.432C159.3 33.928 160.916 32.776 162.804 31.976C164.724 31.144 166.868 30.728 169.236 30.728C172.436 30.728 175.188 31.432 177.492 32.84C179.828 34.248 181.62 36.248 182.868 38.84C184.148 41.4 184.788 44.456 184.788 48.008C184.788 50.696 184.42 53.112 183.684 55.256C182.948 57.4 181.908 59.224 180.564 60.728C179.22 62.232 177.588 63.4 175.668 64.232C173.78 65.032 171.636 65.432 169.236 65.432ZM169.236 61.928C171.668 61.928 173.716 61.384 175.38 60.296C177.076 59.208 178.372 57.624 179.268 55.544C180.164 53.464 180.612 50.968 180.612 48.056C180.612 43.672 179.62 40.28 177.636 37.88C175.684 35.448 172.884 34.232 169.236 34.232C166.868 34.232 164.836 34.776 163.14 35.864C161.476 36.952 160.196 38.536 159.3 40.616C158.404 42.664 157.956 45.144 157.956 48.056C157.956 52.408 158.948 55.816 160.932 58.28C162.916 60.712 165.684 61.928 169.236 61.928Z" fill="black"/>
<path d="M44.3855 108.336C43.7775 108.336 43.2975 108.16 42.9455 107.808C42.5935 107.424 42.4175 106.912 42.4175 106.272V77.568H31.6175C31.0415 77.568 30.5935 77.408 30.2735 77.088C29.9535 76.768 29.7935 76.352 29.7935 75.84C29.7935 75.296 29.9535 74.88 30.2735 74.592C30.5935 74.304 31.0415 74.16 31.6175 74.16H57.2015C57.7775 74.16 58.2255 74.304 58.5455 74.592C58.8655 74.88 59.0255 75.296 59.0255 75.84C59.0255 76.384 58.8655 76.816 58.5455 77.136C58.2255 77.424 57.7775 77.568 57.2015 77.568H46.4015V106.272C46.4015 106.912 46.2255 107.424 45.8735 107.808C45.5535 108.16 45.0575 108.336 44.3855 108.336ZM75.0871 108.432C71.9511 108.432 69.2151 107.728 66.8791 106.32C64.5751 104.88 62.7831 102.864 61.5031 100.272C60.2551 97.68 59.6311 94.608 59.6311 91.056C59.6311 88.368 59.9831 85.968 60.6871 83.856C61.4231 81.712 62.4631 79.904 63.8071 78.432C65.1511 76.928 66.7671 75.776 68.6551 74.976C70.5751 74.144 72.7191 73.728 75.0871 73.728C78.2871 73.728 81.0391 74.432 83.3431 75.84C85.6791 77.248 87.4711 79.248 88.7191 81.84C89.9991 84.4 90.6391 87.456 90.6391 91.008C90.6391 93.696 90.2711 96.112 89.5351 98.256C88.7991 100.4 87.7591 102.224 86.4151 103.728C85.0711 105.232 83.4391 106.4 81.5191 107.232C79.6311 108.032 77.4871 108.432 75.0871 108.432ZM75.0871 104.928C77.5191 104.928 79.5671 104.384 81.2311 103.296C82.9271 102.208 84.2231 100.624 85.1191 98.544C86.0151 96.464 86.4631 93.968 86.4631 91.056C86.4631 86.672 85.4711 83.28 83.4871 80.88C81.5351 78.448 78.7351 77.232 75.0871 77.232C72.7191 77.232 70.6871 77.776 68.9911 78.864C67.3271 79.952 66.0471 81.536 65.1511 83.616C64.2551 85.664 63.8071 88.144 63.8071 91.056C63.8071 95.408 64.7991 98.816 66.7831 101.28C68.7671 103.712 71.5351 104.928 75.0871 104.928ZM111.02 108.432C108.78 108.432 106.812 108.144 105.116 107.568C103.452 106.96 102.044 106.08 100.892 104.928C99.74 103.744 98.876 102.288 98.3 100.56C97.724 98.832 97.436 96.848 97.436 94.608V75.84C97.436 75.168 97.596 74.672 97.916 74.352C98.268 74 98.764 73.824 99.404 73.824C100.044 73.824 100.524 74 100.844 74.352C101.196 74.672 101.372 75.168 101.372 75.84V94.416C101.372 97.936 102.188 100.576 103.82 102.336C105.452 104.064 107.852 104.928 111.02 104.928C114.188 104.928 116.572 104.064 118.172 102.336C119.772 100.576 120.572 97.936 120.572 94.416V75.84C120.572 75.168 120.748 74.672 121.1 74.352C121.452 74 121.948 73.824 122.588 73.824C123.196 73.824 123.66 74 123.98 74.352C124.332 74.672 124.508 75.168 124.508 75.84V94.608C124.508 97.584 123.996 100.112 122.972 102.192C121.98 104.272 120.476 105.84 118.46 106.896C116.444 107.92 113.964 108.432 111.02 108.432ZM134.566 108.336C133.926 108.336 133.43 108.16 133.078 107.808C132.758 107.424 132.598 106.912 132.598 106.272V76.176C132.598 75.504 132.774 75.008 133.126 74.688C133.478 74.336 133.974 74.16 134.614 74.16H145.99C149.606 74.16 152.39 75.008 154.342 76.704C156.294 78.4 157.27 80.816 157.27 83.952C157.27 85.936 156.822 87.664 155.926 89.136C155.062 90.576 153.782 91.68 152.086 92.448C150.39 93.184 148.358 93.552 145.99 93.552L146.47 92.928H147.43C148.678 92.928 149.766 93.248 150.694 93.888C151.622 94.528 152.47 95.552 153.238 96.96L157.846 105.552C158.102 106 158.214 106.448 158.182 106.896C158.182 107.312 158.038 107.664 157.75 107.952C157.462 108.208 157.046 108.336 156.502 108.336C155.958 108.336 155.51 108.208 155.158 107.952C154.806 107.696 154.502 107.328 154.246 106.848L149.014 97.152C148.278 95.776 147.43 94.864 146.47 94.416C145.51 93.936 144.246 93.696 142.678 93.696H136.534V106.272C136.534 106.912 136.374 107.424 136.054 107.808C135.734 108.16 135.238 108.336 134.566 108.336ZM136.534 90.576H145.414C148.038 90.576 150.022 90.032 151.366 88.944C152.71 87.824 153.382 86.16 153.382 83.952C153.382 81.808 152.71 80.192 151.366 79.104C150.022 77.984 148.038 77.424 145.414 77.424H136.534V90.576ZM175.651 108.432C174.147 108.432 172.675 108.304 171.235 108.048C169.795 107.792 168.451 107.424 167.203 106.944C165.987 106.464 164.883 105.856 163.891 105.12C163.507 104.832 163.235 104.512 163.075 104.16C162.947 103.776 162.915 103.408 162.979 103.056C163.075 102.672 163.235 102.352 163.459 102.096C163.715 101.84 164.019 101.696 164.371 101.664C164.723 101.632 165.107 101.744 165.523 102C166.963 103.024 168.499 103.776 170.131 104.256C171.763 104.704 173.603 104.928 175.651 104.928C178.531 104.928 180.659 104.4 182.035 103.344C183.443 102.256 184.147 100.832 184.147 99.072C184.147 97.632 183.635 96.512 182.611 95.712C181.619 94.88 179.939 94.224 177.571 93.744L172.579 92.736C169.571 92.096 167.315 91.056 165.811 89.616C164.339 88.144 163.603 86.192 163.603 83.76C163.603 82.256 163.907 80.896 164.515 79.68C165.123 78.432 165.971 77.376 167.059 76.512C168.147 75.616 169.443 74.928 170.947 74.448C172.451 73.968 174.115 73.728 175.939 73.728C177.955 73.728 179.827 74.016 181.555 74.592C183.315 75.136 184.899 75.968 186.307 77.088C186.659 77.376 186.899 77.712 187.027 78.096C187.155 78.448 187.171 78.8 187.075 79.152C186.979 79.472 186.803 79.744 186.547 79.968C186.323 80.192 186.019 80.32 185.635 80.352C185.283 80.384 184.883 80.256 184.435 79.968C183.155 79.008 181.827 78.32 180.451 77.904C179.075 77.456 177.555 77.232 175.891 77.232C174.195 77.232 172.723 77.488 171.475 78C170.259 78.512 169.299 79.264 168.595 80.256C167.923 81.216 167.587 82.336 167.587 83.616C167.587 85.152 168.051 86.368 168.979 87.264C169.939 88.16 171.491 88.816 173.635 89.232L178.627 90.288C181.859 90.96 184.243 91.984 185.779 93.36C187.347 94.704 188.131 96.544 188.131 98.88C188.131 100.288 187.843 101.584 187.267 102.768C186.691 103.952 185.859 104.976 184.771 105.84C183.683 106.672 182.371 107.312 180.835 107.76C179.299 108.208 177.571 108.432 175.651 108.432Z" fill="black"/>
</svg>
